ffmpeg started on 2016-12-08 at 02:03:12
Report written to "Output/x264/results/ffmpeg/sintelslower6000k.log"
Command line:
Tools/ffmpeg/ffmpeg -benchmark -y -i Input/y4m/sintel.y4m -c:v libx264 -preset slower -b:v 6000k -an Output/x264/encoded/sintelslower6000k.mkv
ffmpeg version N-82227-gdb23fde Copyright (c) 2000-2016 the FFmpeg developers
  built with gcc 5.4.0 (Ubuntu 5.4.0-6ubuntu1~16.04.2) 20160609
  configuration: --prefix=/home/jaroslav/ffmpeg_build --pkg-config-flags=--static --extra-cflags=-I/home/jaroslav/ffmpeg_build/include --extra-ldflags=-L/home/jaroslav/ffmpeg_build/lib --bindir=/home/jaroslav/bin --enable-gpl --enable-libass --enable-libfdk-aac --enable-libfreetype --enable-libmp3lame --enable-libopus --enable-libtheora --enable-libvorbis --enable-libvpx --enable-libx264 --enable-libx265 --enable-nvenc --enable-libmfx --enable-libxvid --enable-libgsm --enable-libopencore-amrnb --enable-version3 --enable-nonfree
  libavutil      55. 35.100 / 55. 35.100
  libavcodec     57. 66.101 / 57. 66.101
  libavformat    57. 57.100 / 57. 57.100
  libavdevice    57.  2.100 / 57.  2.100
  libavfilter     6. 66.100 /  6. 66.100
  libswscale      4.  3.100 /  4.  3.100
  libswresample   2.  4.100 /  2.  4.100
  libpostproc    54.  2.100 / 54.  2.100
Input #0, yuv4mpegpipe, from 'Input/y4m/sintel.y4m':
  Duration: 00:00:20.83, start: 0.000000, bitrate: 2057307 kb/s
    Stream #0:0: Video: rawvideo (I420 / 0x30323449), yuv420p(progressive), 4096x1744, SAR 1:1 DAR 256:109, 24 fps, 24 tbr, 24 tbn, 24 tbc
[libx264 @ 0x44701c0] using SAR=1/1
[libx264 @ 0x44701c0] DPB size (8 frames, 223232 mbs) > level limit (6 frames, 184320 mbs)
[libx264 @ 0x44701c0] using cpu capabilities: MMX2 SSE2Fast SSSE3 SSE4.2 AVX FMA3 AVX2 LZCNT BMI2
[libx264 @ 0x44701c0] profile High, level 5.2
[libx264 @ 0x44701c0] 264 - core 148 - H.264/MPEG-4 AVC codec - Copyleft 2003-2016 - http://www.videolan.org/x264.html - options: cabac=1 ref=8 deblock=1:0:0 analyse=0x3:0x133 me=umh subme=9 psy=1 psy_rd=1.00:0.00 mixed_ref=1 me_range=16 chroma_me=1 trellis=2 8x8dct=1 cqm=0 deadzone=21,11 fast_pskip=1 chroma_qp_offset=-2 threads=6 lookahead_threads=1 sliced_threads=0 nr=0 decimate=1 interlaced=0 bluray_compat=0 constrained_intra=0 bframes=3 b_pyramid=2 b_adapt=2 b_bias=0 direct=3 weightb=1 open_gop=0 weightp=2 keyint=250 keyint_min=24 scenecut=40 intra_refresh=0 rc_lookahead=60 rc=abr mbtree=1 bitrate=6000 ratetol=1.0 qcomp=0.60 qpmin=0 qpmax=69 qpstep=4 ip_ratio=1.40 aq=1:1.00
Output #0, matroska, to 'Output/x264/encoded/sintelslower6000k.mkv':
  Metadata:
    encoder         : Lavf57.57.100
    Stream #0:0: Video: h264 (libx264) (H264 / 0x34363248), yuv420p, 4096x1744 [SAR 1:1 DAR 256:109], q=-1--1, 6000 kb/s, 24 fps, 1k tbn, 24 tbc
    Metadata:
      encoder         : Lavc57.66.101 libx264
    Side data:
      cpb: bitrate max/min/avg: 0/0/6000000 buffer size: 0 vbv_delay: -1
Stream mapping:
  Stream #0:0 -> #0:0 (rawvideo (native) -> h264 (libx264))
Press [q] to stop, [?] for help
frame=   10 fps=0.0 q=0.0 size=       0kB time=00:00:00.00 bitrate=N/A speed=   0x    frame=   19 fps= 18 q=0.0 size=       0kB time=00:00:00.00 bitrate=N/A speed=   0x    frame=   28 fps= 18 q=0.0 size=       0kB time=00:00:00.00 bitrate=N/A speed=   0x    frame=   37 fps= 17 q=0.0 size=       0kB time=00:00:00.00 bitrate=N/A speed=   0x    frame=   46 fps= 17 q=0.0 size=       0kB time=00:00:00.00 bitrate=N/A speed=   0x    frame=   55 fps= 17 q=0.0 size=       0kB time=00:00:00.00 bitrate=N/A speed=   0x    frame=   64 fps= 17 q=0.0 size=       0kB time=00:00:00.00 bitrate=N/A speed=   0x    frame=   67 fps=6.4 q=0.0 size=       0kB time=00:00:00.00 bitrate=N/A speed=   0x    frame=   68 fps=6.1 q=0.0 size=       0kB time=00:00:00.00 bitrate=N/A speed=   0x    frame=   73 fps=5.8 q=38.0 size=       1kB time=00:00:00.00 bitrate=5888.0kbits/s speed=7.99e-05x    frame=   74 fps=5.6 q=33.0 size=       1kB time=00:00:00.04 bitrate= 136.9kbits/s speed=0.00324x    frame=   75 fps=5.4 q=35.0 size=       1kB time=00:00:00.08 bitrate=  70.1kbits/s speed=0.00609x    frame=   77 fps=5.2 q=42.0 size=       1kB time=00:00:00.16 bitrate=  35.0kbits/s speed=0.0113x    frame=   79 fps=5.0 q=47.0 size=       1kB time=00:00:00.25 bitrate=  23.5kbits/s speed=0.016x    frame=   80 fps=4.9 q=47.0 size=       1kB time=00:00:00.29 bitrate=  20.1kbits/s speed=0.0181x    frame=   82 fps=4.9 q=47.0 size=       1kB time=00:00:00.37 bitrate=  15.7kbits/s speed=0.0225x    frame=   84 fps=4.8 q=47.0 size=       1kB time=00:00:00.45 bitrate=  12.8kbits/s speed=0.0261x    frame=   85 fps=4.6 q=47.0 size=       1kB time=00:00:00.50 bitrate=  11.8kbits/s speed=0.0273x    frame=   86 fps=4.5 q=47.0 size=       1kB time=00:00:00.54 bitrate=  10.8kbits/s speed=0.0284x    frame=   88 fps=4.5 q=47.0 size=       1kB time=00:00:00.62 bitrate=   9.4kbits/s speed=0.0319x    frame=   91 fps=4.5 q=47.0 size=       1kB time=00:00:00.75 bitrate=   7.8kbits/s speed=0.0369x    frame=   92 fps=4.3 q=47.0 size=       1kB time=00:00:00.79 bitrate=   7.4kbits/s speed=0.0374x    frame=   94 fps=4.3 q=46.0 size=       1kB time=00:00:00.87 bitrate=   6.7kbits/s speed=0.0396x    frame=   95 fps=4.2 q=46.0 size=       1kB time=00:00:00.91 bitrate=   6.4kbits/s speed=0.0402x    frame=   98 fps=4.1 q=46.0 size=       1kB time=00:00:01.04 bitrate=   5.6kbits/s speed=0.044x    frame=  100 fps=4.1 q=46.0 size=       1kB time=00:00:01.12 bitrate=   5.2kbits/s speed=0.0461x    frame=  102 fps=4.0 q=46.0 size=       1kB time=00:00:01.20 bitrate=   4.9kbits/s speed=0.0476x    frame=  104 fps=4.0 q=45.0 size=       1kB time=00:00:01.29 bitrate=   4.6kbits/s speed=0.0492x    frame=  106 fps=3.9 q=45.0 size=       1kB time=00:00:01.37 bitrate=   4.3kbits/s speed=0.0505x    frame=  108 fps=3.8 q=45.0 size=       1kB time=00:00:01.45 bitrate=   4.0kbits/s speed=0.0518x    frame=  110 fps=3.8 q=45.0 size=       1kB time=00:00:01.54 bitrate=   3.8kbits/s speed=0.0531x    frame=  112 fps=3.8 q=45.0 size=       1kB time=00:00:01.62 bitrate=   3.6kbits/s speed=0.0548x    frame=  114 fps=3.8 q=45.0 size=       1kB time=00:00:01.70 bitrate=   3.4kbits/s speed=0.0566x    frame=  116 fps=3.7 q=44.0 size=       1kB time=00:00:01.79 bitrate=   3.3kbits/s speed=0.0575x    frame=  119 fps=3.7 q=44.0 size=       1kB time=00:00:01.91 bitrate=   3.1kbits/s speed=0.0601x    frame=  121 fps=3.7 q=44.0 size=       1kB time=00:00:02.00 bitrate=   2.9kbits/s speed=0.0616x    frame=  123 fps=3.6 q=44.0 size=       1kB time=00:00:02.08 bitrate=   2.8kbits/s speed=0.0616x    frame=  124 fps=3.6 q=44.0 size=       1kB time=00:00:02.12 bitrate=   2.8kbits/s speed=0.0618x    frame=  126 fps=3.6 q=44.0 size=       1kB time=00:00:02.20 bitrate=   2.7kbits/s speed=0.0627x    frame=  128 fps=3.5 q=44.0 size=       1kB time=00:00:02.29 bitrate=   2.6kbits/s speed=0.0631x    frame=  129 fps=3.5 q=44.0 size=       1kB time=00:00:02.33 bitrate=   2.5kbits/s speed=0.0632x    frame=  131 fps=3.5 q=44.0 size=       1kB time=00:00:02.41 bitrate=   2.4kbits/s speed=0.0641x    frame=  133 fps=3.4 q=44.0 size=       1kB time=00:00:02.50 bitrate=   2.4kbits/s speed=0.0648x    frame=  135 fps=3.4 q=44.0 size=       1kB time=00:00:02.58 bitrate=   2.3kbits/s speed=0.065x    frame=  137 fps=3.3 q=44.0 size=       1kB time=00:00:02.66 bitrate=   2.2kbits/s speed=0.0649x    frame=  138 fps=3.3 q=44.0 size=       1kB time=00:00:02.70 bitrate=   2.2kbits/s speed=0.065x    frame=  140 fps=3.3 q=44.0 size=       1kB time=00:00:02.79 bitrate=   2.1kbits/s speed=0.0656x    frame=  142 fps=3.3 q=44.0 size=       1kB time=00:00:02.87 bitrate=   2.0kbits/s speed=0.0662x    frame=  144 fps=3.2 q=44.0 size=       1kB time=00:00:02.95 bitrate=   2.0kbits/s speed=0.0662x    frame=  146 fps=3.2 q=43.0 size=       1kB time=00:00:03.04 bitrate=   1.9kbits/s speed=0.0669x    frame=  147 fps=3.2 q=43.0 size=       1kB time=00:00:03.08 bitrate=   1.9kbits/s speed=0.0667x    frame=  149 fps=3.2 q=43.0 size=       1kB time=00:00:03.16 bitrate=   1.9kbits/s speed=0.0675x    frame=  151 fps=3.1 q=43.0 size=       1kB time=00:00:03.25 bitrate=   1.8kbits/s speed=0.0673x    frame=  152 fps=3.1 q=43.0 size=       1kB time=00:00:03.29 bitrate=   1.8kbits/s speed=0.0674x    frame=  154 fps=3.1 q=43.0 size=       1kB time=00:00:03.37 bitrate=   1.7kbits/s speed=0.0677x    frame=  155 fps=3.1 q=43.0 size=       1kB time=00:00:03.41 bitrate=   1.7kbits/s speed=0.0678x    frame=  157 fps=3.1 q=43.0 size=       1kB time=00:00:03.50 bitrate=   1.7kbits/s speed=0.0684x    frame=  158 fps=3.0 q=43.0 size=       1kB time=00:00:03.54 bitrate=   1.7kbits/s speed=0.0682x    frame=  160 fps=3.0 q=43.0 size=       1kB time=00:00:03.62 bitrate=   1.6kbits/s speed=0.0683x    frame=  162 fps=3.0 q=43.0 size=       1kB time=00:00:03.70 bitrate=   1.6kbits/s speed=0.0689x    frame=  164 fps=3.0 q=43.0 size=       1kB time=00:00:03.79 bitrate=   1.6kbits/s speed=0.0693x    frame=  166 fps=3.0 q=43.0 size=       1kB time=00:00:03.87 bitrate=   1.5kbits/s speed=0.0701x    frame=  167 fps=3.0 q=43.0 size=       1kB time=00:00:03.91 bitrate=   1.5kbits/s speed=0.0694x    frame=  170 fps=3.0 q=43.0 size=       1kB time=00:00:04.04 bitrate=   1.5kbits/s speed=0.071x    frame=  172 fps=3.0 q=43.0 size=       1kB time=00:00:04.12 bitrate=   1.4kbits/s speed=0.0716x    frame=  173 fps=2.9 q=43.0 size=       1kB time=00:00:04.16 bitrate=   1.4kbits/s speed=0.0705x    frame=  178 fps=3.0 q=42.0 size=       1kB time=00:00:04.37 bitrate=   1.3kbits/s speed=0.0729x    frame=  179 fps=3.0 q=42.0 size=       1kB time=00:00:04.41 bitrate=   1.3kbits/s speed=0.0728x    frame=  181 fps=2.9 q=40.0 size=       1kB time=00:00:04.50 bitrate=   1.3kbits/s speed=0.0733x    frame=  182 fps=2.9 q=42.0 size=       1kB time=00:00:04.54 bitrate=   1.3kbits/s speed=0.0731x    frame=  185 fps=2.9 q=42.0 size=       1kB time=00:00:04.66 bitrate=   1.3kbits/s speed=0.0742x    frame=  191 fps=3.0 q=42.0 size=    3712kB time=00:00:04.91 bitrate=6182.5kbits/s speed=0.0768x    frame=  193 fps=3.0 q=42.0 size=    3712kB time=00:00:05.00 bitrate=6079.9kbits/s speed=0.0774x    frame=  196 fps=3.0 q=42.0 size=    3712kB time=00:00:05.12 bitrate=5931.7kbits/s speed=0.0782x    frame=  197 fps=3.0 q=42.0 size=    3712kB time=00:00:05.16 bitrate=5883.5kbits/s speed=0.0778x    frame=  199 fps=3.0 q=42.0 size=    3712kB time=00:00:05.25 bitrate=5790.5kbits/s speed=0.0783x    frame=  200 fps=3.0 q=42.0 size=    3712kB time=00:00:05.29 bitrate=5744.5kbits/s speed=0.0782x    frame=  203 fps=3.0 q=42.0 size=    3712kB time=00:00:05.41 bitrate=5612.0kbits/s speed=0.0789x    frame=  205 fps=2.9 q=42.0 size=    3712kB time=00:00:05.50 bitrate=5527.3kbits/s speed=0.079x    frame=  207 fps=3.0 q=42.0 size=    3712kB time=00:00:05.58 bitrate=5445.1kbits/s speed=0.0796x    frame=  209 fps=3.0 q=42.0 size=    3712kB time=00:00:05.66 bitrate=5364.4kbits/s speed=0.0801x    frame=  211 fps=2.9 q=42.0 size=    3712kB time=00:00:05.75 bitrate=5287.0kbits/s speed=0.0802x    frame=  213 fps=2.9 q=42.0 size=    3712kB time=00:00:05.83 bitrate=5211.8kbits/s speed=0.0806x    frame=  215 fps=2.9 q=42.0 size=    3712kB time=00:00:05.91 bitrate=5137.8kbits/s speed=0.0812x    frame=  218 fps=3.0 q=42.0 size=    3712kB time=00:00:06.04 bitrate=5031.6kbits/s speed=0.0821x    frame=  219 fps=2.9 q=42.0 size=    3712kB time=00:00:06.08 bitrate=4997.6kbits/s speed=0.0819x    frame=  221 fps=2.9 q=42.0 size=    3712kB time=00:00:06.16 bitrate=4929.6kbits/s speed=0.0822x    frame=  223 fps=2.9 q=42.0 size=    3712kB time=00:00:06.25 bitrate=4864.1kbits/s speed=0.0826x    frame=  226 fps=3.0 q=42.0 size=    3712kB time=00:00:06.37 bitrate=4768.8kbits/s speed=0.0837x    frame=  228 fps=2.9 q=42.0 size=    3712kB time=00:00:06.45 bitrate=4707.5kbits/s speed=0.0826x    frame=  231 fps=2.9 q=41.0 size=    3712kB time=00:00:06.58 bitrate=4618.1kbits/s speed=0.0834x    frame=  233 fps=2.9 q=41.0 size=    3712kB time=00:00:06.66 bitrate=4559.9kbits/s speed=0.0837x    frame=  234 fps=2.9 q=41.0 size=    3712kB time=00:00:06.70 bitrate=4532.1kbits/s speed=0.0836x    frame=  236 fps=2.9 q=41.0 size=    3712kB time=00:00:06.79 bitrate=4476.0kbits/s speed=0.0837x    frame=  237 fps=2.9 q=41.0 size=    3712kB time=00:00:06.83 bitrate=4449.2kbits/s speed=0.0837x    frame=  239 fps=2.9 q=41.0 size=    3712kB time=00:00:06.91 bitrate=4395.2kbits/s speed=0.084x    frame=  241 fps=2.9 q=41.0 size=    3712kB time=00:00:07.00 bitrate=4343.0kbits/s speed=0.0839x    frame=  244 fps=2.9 q=41.0 size=    3712kB time=00:00:07.12 bitrate=4266.9kbits/s speed=0.0843x    frame=  246 fps=2.9 q=41.0 size=    3712kB time=00:00:07.20 bitrate=4217.7kbits/s speed=0.0845x    frame=  248 fps=2.9 q=41.0 size=    3712kB time=00:00:07.29 bitrate=4169.2kbits/s speed=0.0845x    frame=  249 fps=2.9 q=39.0 size=    3712kB time=00:00:07.33 bitrate=4145.9kbits/s speed=0.0845x    frame=  251 fps=2.9 q=41.0 size=    3712kB time=00:00:07.41 bitrate=4098.9kbits/s speed=0.0848x    frame=  254 fps=2.9 q=41.0 size=    5539kB time=00:00:07.54 bitrate=6015.6kbits/s speed=0.0856x    frame=  260 fps=2.9 q=41.0 size=    5539kB time=00:00:07.79 bitrate=5822.6kbits/s speed=0.0878x    frame=  262 fps=2.9 q=41.0 size=    5539kB time=00:00:07.87 bitrate=5761.3kbits/s speed=0.0878x    frame=  265 fps=2.9 q=41.0 size=    5539kB time=00:00:08.00 bitrate=5671.3kbits/s speed=0.0887x    frame=  267 fps=2.9 q=41.0 size=    5539kB time=00:00:08.08 bitrate=5613.0kbits/s speed=0.0886x    frame=  269 fps=2.9 q=41.0 size=    5539kB time=00:00:08.16 bitrate=5555.3kbits/s speed=0.0886x    frame=  271 fps=2.9 q=41.0 size=    5539kB time=00:00:08.25 bitrate=5499.4kbits/s speed=0.089x    frame=  272 fps=2.9 q=41.0 size=    5539kB time=00:00:08.29 bitrate=5471.6kbits/s speed=0.0887x    frame=  274 fps=2.9 q=41.0 size=    5539kB time=00:00:08.37 bitrate=5417.4kbits/s speed=0.0888x    frame=  277 fps=2.9 q=40.0 size=    5539kB time=00:00:08.50 bitrate=5337.7kbits/s speed=0.0894x    frame=  279 fps=2.9 q=40.0 size=    5539kB time=00:00:08.58 bitrate=5286.1kbits/s speed=0.0895x    frame=  282 fps=2.9 q=40.0 size=    5539kB time=00:00:08.70 bitrate=5210.2kbits/s speed=0.0903x    frame=  284 fps=2.9 q=40.0 size=    5539kB time=00:00:08.79 bitrate=5160.4kbits/s speed=0.0901x    frame=  287 fps=2.9 q=40.0 size=    5539kB time=00:00:08.91 bitrate=5088.1kbits/s speed=0.0906x    frame=  290 fps=2.9 q=40.0 size=    5539kB time=00:00:09.04 bitrate=5017.8kbits/s speed=0.0911x    frame=  293 fps=2.9 q=40.0 size=    5539kB time=00:00:09.16 bitrate=4949.4kbits/s speed=0.0911x    frame=  298 fps=2.9 q=40.0 size=    5539kB time=00:00:09.37 bitrate=4839.6kbits/s speed=0.0924x    frame=  299 fps=2.9 q=40.0 size=    5539kB time=00:00:09.41 bitrate=4818.0kbits/s speed=0.0923x    frame=  301 fps=2.9 q=40.0 size=    5539kB time=00:00:09.50 bitrate=4775.9kbits/s speed=0.0922x    frame=  307 fps=2.9 q=40.0 size=    5539kB time=00:00:09.75 bitrate=4653.4kbits/s speed=0.0933x    frame=  311 fps=2.9 q=40.0 size=    5539kB time=00:00:09.91 bitrate=4575.1kbits/s speed=0.0937x    frame=  314 fps=3.0 q=39.0 size=    5539kB time=00:00:10.04 bitrate=4518.1kbits/s speed=0.0944x    frame=  317 fps=3.0 q=39.0 size=    5539kB time=00:00:10.16 bitrate=4462.6kbits/s speed=0.0951x    frame=  319 fps=3.0 q=39.0 size=    5539kB time=00:00:10.25 bitrate=4426.5kbits/s speed=0.0954x    frame=  320 fps=2.9 q=39.0 size=    5539kB time=00:00:10.29 bitrate=4408.4kbits/s speed=0.0949x    frame=  325 fps=3.0 q=39.0 size=    5539kB time=00:00:10.50 bitrate=4321.1kbits/s speed=0.0963x    frame=  326 fps=3.0 q=39.0 size=    5539kB time=00:00:10.54 bitrate=4303.9kbits/s speed=0.096x    frame=  329 fps=3.0 q=39.0 size=    5539kB time=00:00:10.66 bitrate=4253.4kbits/s speed=0.0966x    frame=  332 fps=3.0 q=39.0 size=    5539kB time=00:00:10.79 bitrate=4204.2kbits/s speed=0.0971x    frame=  336 fps=3.0 q=39.0 size=    7318kB time=00:00:10.95 bitrate=5470.2kbits/s speed=0.0981x    frame=  342 fps=3.0 q=39.0 size=    7318kB time=00:00:11.20 bitrate=5348.2kbits/s speed=0.0998x    frame=  345 fps=3.1 q=39.0 size=    7318kB time=00:00:11.33 bitrate=5289.2kbits/s speed= 0.1x    frame=  348 fps=3.1 q=38.0 size=    7318kB time=00:00:11.45 bitrate=5231.5kbits/s speed=0.101x    frame=  352 fps=3.1 q=38.0 size=    7318kB time=00:00:11.62 bitrate=5156.3kbits/s speed=0.101x    frame=  355 fps=3.1 q=38.0 size=    7318kB time=00:00:11.75 bitrate=5101.5kbits/s speed=0.101x    frame=  360 fps=3.1 q=38.0 size=    7318kB time=00:00:11.95 bitrate=5012.8kbits/s speed=0.102x    frame=  363 fps=3.1 q=38.0 size=    7318kB time=00:00:12.08 bitrate=4960.9kbits/s speed=0.103x    frame=  367 fps=3.1 q=38.0 size=    7318kB time=00:00:12.25 bitrate=4893.3kbits/s speed=0.104x    frame=  370 fps=3.1 q=38.0 size=    7318kB time=00:00:12.37 bitrate=4843.9kbits/s speed=0.104x    frame=  376 fps=3.1 q=37.0 size=    7318kB time=00:00:12.62 bitrate=4748.0kbits/s speed=0.105x    frame=  378 fps=3.1 q=37.0 size=    7318kB time=00:00:12.70 bitrate=4716.9kbits/s speed=0.105x    frame=  380 fps=3.1 q=37.0 size=    7318kB time=00:00:12.79 bitrate=4686.0kbits/s speed=0.106x    frame=  385 fps=3.2 q=37.0 size=    7318kB time=00:00:13.00 bitrate=4611.0kbits/s speed=0.107x    frame=  388 fps=3.2 q=37.0 size=    7318kB time=00:00:13.12 bitrate=4567.1kbits/s speed=0.107x    frame=  392 fps=3.2 q=37.0 size=    7318kB time=00:00:13.29 bitrate=4509.7kbits/s speed=0.108x    frame=  396 fps=3.2 q=37.0 size=    7318kB time=00:00:13.45 bitrate=4454.1kbits/s speed=0.108x    frame=  400 fps=3.2 q=36.0 size=    7318kB time=00:00:13.62 bitrate=4399.5kbits/s speed=0.109x    frame=  403 fps=3.2 q=36.0 size=    7318kB time=00:00:13.75 bitrate=4359.5kbits/s speed=0.11x    frame=  407 fps=3.2 q=36.0 size=    7318kB time=00:00:13.91 bitrate=4307.2kbits/s speed=0.11x    frame=  409 fps=3.2 q=36.0 size=    7318kB time=00:00:14.00 bitrate=4281.7kbits/s speed=0.11x    frame=  412 fps=3.2 q=36.0 size=    7318kB time=00:00:14.12 bitrate=4243.8kbits/s speed=0.111x    frame=  416 fps=3.2 q=36.0 size=    7318kB time=00:00:14.29 bitrate=4194.2kbits/s speed=0.112x    frame=  419 fps=3.3 q=36.0 size=    7318kB time=00:00:14.41 bitrate=4157.8kbits/s speed=0.112x    frame=  424 fps=3.3 q=35.0 size=    7318kB time=00:00:14.62 bitrate=4098.7kbits/s speed=0.113x    frame=  426 fps=3.3 q=35.0 size=    7318kB time=00:00:14.70 bitrate=4075.6kbits/s speed=0.113x    frame=  428 fps=3.3 q=33.0 size=    7318kB time=00:00:14.79 bitrate=4052.4kbits/s speed=0.113x    frame=  434 fps=3.3 q=35.0 size=    9014kB time=00:00:15.04 bitrate=4908.9kbits/s speed=0.115x    frame=  437 fps=3.3 q=35.0 size=    9014kB time=00:00:15.16 bitrate=4868.4kbits/s speed=0.115x    frame=  439 fps=3.3 q=35.0 size=    9014kB time=00:00:15.25 bitrate=4841.9kbits/s speed=0.115x    frame=  443 fps=3.3 q=35.0 size=    9014kB time=00:00:15.41 bitrate=4789.5kbits/s speed=0.116x    frame=  445 fps=3.3 q=35.0 size=    9014kB time=00:00:15.50 bitrate=4763.9kbits/s speed=0.116x    frame=  447 fps=3.3 q=35.0 size=    9014kB time=00:00:15.58 bitrate=4738.5kbits/s speed=0.116x    frame=  450 fps=3.3 q=35.0 size=    9014kB time=00:00:15.70 bitrate=4700.8kbits/s speed=0.116x    frame=  452 fps=3.3 q=35.0 size=    9014kB time=00:00:15.79 bitrate=4675.8kbits/s speed=0.116x    frame=  455 fps=3.3 q=35.0 size=    9014kB time=00:00:15.91 bitrate=4639.1kbits/s speed=0.117x    frame=  458 fps=3.3 q=34.0 size=    9014kB time=00:00:16.04 bitrate=4602.9kbits/s speed=0.116x    frame=  460 fps=3.3 q=34.0 size=    9014kB time=00:00:16.12 bitrate=4579.2kbits/s speed=0.117x    frame=  464 fps=3.3 q=34.0 size=    9014kB time=00:00:16.29 bitrate=4532.3kbits/s speed=0.117x    frame=  466 fps=3.3 q=34.0 size=    9014kB time=00:00:16.37 bitrate=4509.3kbits/s speed=0.117x    frame=  470 fps=3.3 q=35.0 size=    9014kB time=00:00:16.54 bitrate=4463.8kbits/s speed=0.117x    frame=  471 fps=3.3 q=35.0 size=    9014kB time=00:00:16.58 bitrate=4452.8kbits/s speed=0.116x    frame=  477 fps=3.3 q=35.0 size=    9014kB time=00:00:16.83 bitrate=4386.6kbits/s speed=0.117x    frame=  481 fps=3.3 q=35.0 size=    9014kB time=00:00:17.00 bitrate=4343.5kbits/s speed=0.117x    frame=  485 fps=3.3 q=35.0 size=    9014kB time=00:00:17.16 bitrate=4301.3kbits/s speed=0.117x    frame=  492 fps=3.3 q=35.0 size=   10586kB time=00:00:17.45 bitrate=4967.2kbits/s speed=0.119x    frame=  495 fps=3.4 q=35.0 size=   10586kB time=00:00:17.58 bitrate=4931.9kbits/s speed=0.119x    frame=  498 fps=3.3 q=35.0 size=   10586kB time=00:00:17.70 bitrate=4897.1kbits/s speed=0.119x    frame=  500 fps=3.0 q=-1.0 Lsize=   12782kB time=00:00:20.70 bitrate=5056.4kbits/s speed=0.126x    
video:12778kB audio:0kB subtitle:0kB other streams:0kB global headers:0kB muxing overhead: 0.036716%
bench: utime=608.132s
bench: maxrss=2152936kB
[libx264 @ 0x44701c0] frame I:6     Avg QP:28.90  size:114893
[libx264 @ 0x44701c0] frame P:273   Avg QP:35.41  size: 32779
[libx264 @ 0x44701c0] frame B:221   Avg QP:34.80  size: 15591
[libx264 @ 0x44701c0] consecutive B-frames: 35.2% 11.6% 18.0% 35.2%
[libx264 @ 0x44701c0] mb I  I16..4: 29.2% 68.4%  2.4%
[libx264 @ 0x44701c0] mb P  I16..4: 14.0% 30.3%  0.1%  P16..4: 17.4%  0.9%  0.8%  0.0%  0.0%    skip:36.6%
[libx264 @ 0x44701c0] mb B  I16..4:  0.9%  1.4%  0.0%  B16..8: 28.4%  1.4%  0.2%  direct: 0.4%  skip:67.3%  L0:40.0% L1:58.9% BI: 1.1%
[libx264 @ 0x44701c0] final ratefactor: 32.26
[libx264 @ 0x44701c0] 8x8 transform intra:67.8% inter:89.4%
[libx264 @ 0x44701c0] direct mvs  spatial:99.1% temporal:0.9%
[libx264 @ 0x44701c0] coded y,uvDC,uvAC intra: 11.1% 18.2% 0.5% inter: 2.5% 2.4% 0.0%
[libx264 @ 0x44701c0] i16 v,h,dc,p: 22% 29%  7% 41%
[libx264 @ 0x44701c0] i8 v,h,dc,ddl,ddr,vr,hd,vl,hu: 27% 12% 48%  2%  2%  2%  3%  2%  2%
[libx264 @ 0x44701c0] i4 v,h,dc,ddl,ddr,vr,hd,vl,hu: 15% 16%  9%  7% 11% 10% 13%  6% 11%
[libx264 @ 0x44701c0] i8c dc,h,v,p: 87%  8%  4%  1%
[libx264 @ 0x44701c0] Weighted P-Frames: Y:1.1% UV:0.7%
[libx264 @ 0x44701c0] ref P L0: 63.0% 13.3% 11.5%  3.6%  2.5%  2.1%  2.1%  1.5%  0.4%  0.0%
[libx264 @ 0x44701c0] ref B L0: 88.2%  6.4%  2.8%  1.0%  0.8%  0.6%  0.2%
[libx264 @ 0x44701c0] ref B L1: 98.4%  1.6%
[libx264 @ 0x44701c0] kb/s:5024.09
